<svg width="306.1" height="64.1" viewBox="0 0 306.1 64.1" xmlns="http://www.w3.org/2000/svg"><g id="svgGroup" stroke-linecap="round" fill-rule="evenodd" font-size="9pt" stroke="#035bff" stroke-width="0.25mm" fill="#ffffff" style="stroke:#035bff;stroke-width:0.25mm;fill:#ffffff"><path d="M 39.1 64.1 L 26.2 64.1 Q 19 64.1 13.05 63.75 A 84.959 84.959 0 0 1 9.566 63.478 Q 6.228 63.143 3.879 62.581 A 24.881 24.881 0 0 1 3.55 62.5 Q 0.032 61.608 0 60.029 A 1.434 1.434 0 0 1 0 60 L 5 52.3 A 15.674 15.674 0 0 0 7.26 53.093 Q 9.633 53.745 12.945 54.041 A 51.021 51.021 0 0 0 13.05 54.05 A 95.937 95.937 0 0 0 16.596 54.287 Q 20.573 54.486 25.931 54.499 A 312.498 312.498 0 0 0 26.7 54.5 L 36.3 54.5 A 15.249 15.249 0 0 0 38.389 54.368 Q 40.723 54.044 41.925 52.925 A 3.798 3.798 0 0 0 42.5 52.25 A 8.578 8.578 0 0 0 44 47.4 L 44 13.3 L 43.2 5.3 L 57.2 5.3 L 57.2 46.2 A 34.677 34.677 0 0 1 56.826 51.4 A 27.497 27.497 0 0 1 55.95 55.3 A 11.181 11.181 0 0 1 50.97 61.676 A 14.19 14.19 0 0 1 50.85 61.75 A 13.009 13.009 0 0 1 47.765 63.076 Q 44.787 63.96 40.493 64.081 A 49.523 49.523 0 0 1 39.1 64.1 Z" id="0" vector-effect="non-scaling-stroke"/><path d="M 84.4 64.1 L 72.2 64.1 L 72.2 19.3 L 84.4 19.3 L 84.4 64.1 Z M 76.377 12.882 A 14.475 14.475 0 0 0 78.3 13 A 18.051 18.051 0 0 0 78.586 12.998 Q 82.165 12.941 83.8 11.45 A 4.516 4.516 0 0 0 84.842 10.015 Q 85.194 9.266 85.358 8.311 A 10.738 10.738 0 0 0 85.5 6.5 Q 85.5 2.9 83.8 1.45 A 4.211 4.211 0 0 0 83.508 1.223 Q 82.301 0.364 80.221 0.109 A 15.801 15.801 0 0 0 78.3 0 A 18.874 18.874 0 0 0 77.829 0.006 Q 75.742 0.058 74.352 0.581 A 4.817 4.817 0 0 0 72.85 1.45 A 3.595 3.595 0 0 0 72.694 1.595 Q 71.2 3.074 71.2 6.5 A 11.706 11.706 0 0 0 71.299 8.07 Q 71.609 10.361 72.9 11.5 A 4.258 4.258 0 0 0 73.035 11.615 Q 74.244 12.595 76.377 12.882 Z" id="1" vector-effect="non-scaling-stroke"/><path d="M 109.7 64.1 L 97.5 64.1 L 97.5 19.3 L 105.7 19.3 L 109.7 21.3 Q 112.916 20.688 117.128 20.192 A 171.409 171.409 0 0 1 119.8 19.9 A 109.043 109.043 0 0 1 125.288 19.49 Q 128.091 19.348 131.196 19.312 A 183.59 183.59 0 0 1 133.3 19.3 L 138.3 19.3 A 28.789 28.789 0 0 1 141.133 19.43 Q 144.123 19.727 146 20.7 Q 148.7 22.1 149.85 24.2 A 12.322 12.322 0 0 1 150.936 26.845 A 10.672 10.672 0 0 1 151.25 28.45 A 45.123 45.123 0 0 1 151.402 29.971 Q 151.462 30.697 151.485 31.329 A 21.01 21.01 0 0 1 151.5 32.1 L 151.5 64.1 L 139.3 64.1 L 139.3 31.9 Q 139.3 28.189 135.168 27.921 A 10.332 10.332 0 0 0 134.5 27.9 L 112.7 27.9 Q 110.983 27.9 110.369 28.186 A 1.029 1.029 0 0 0 110.25 28.25 A 0.866 0.866 0 0 0 109.954 28.592 Q 109.703 29.076 109.7 30.079 A 8.091 8.091 0 0 0 109.7 30.1 L 109.7 64.1 Z" id="2" vector-effect="non-scaling-stroke"/><path d="M 176.2 64.1 L 164 64.1 L 164 19.3 L 176.2 19.3 L 176.2 64.1 Z M 168.177 12.882 A 14.475 14.475 0 0 0 170.1 13 A 18.051 18.051 0 0 0 170.386 12.998 Q 173.965 12.941 175.6 11.45 A 4.516 4.516 0 0 0 176.642 10.015 Q 176.994 9.266 177.158 8.311 A 10.738 10.738 0 0 0 177.3 6.5 Q 177.3 2.9 175.6 1.45 A 4.211 4.211 0 0 0 175.308 1.223 Q 174.101 0.364 172.021 0.109 A 15.801 15.801 0 0 0 170.1 0 A 18.874 18.874 0 0 0 169.629 0.006 Q 167.542 0.058 166.152 0.581 A 4.817 4.817 0 0 0 164.65 1.45 A 3.595 3.595 0 0 0 164.494 1.595 Q 163 3.074 163 6.5 A 11.706 11.706 0 0 0 163.099 8.07 Q 163.409 10.361 164.7 11.5 A 4.258 4.258 0 0 0 164.835 11.615 Q 166.044 12.595 168.177 12.882 Z" id="3" vector-effect="non-scaling-stroke"/><path d="M 207.6 64.1 L 202.5 64.1 A 29.918 29.918 0 0 1 199.647 63.973 Q 196.741 63.694 194.85 62.8 Q 192.651 61.76 191.475 60.273 A 6.346 6.346 0 0 1 190.95 59.5 Q 189.8 57.5 189.55 55.3 Q 189.3 53.1 189.3 51.3 L 189.3 19.3 L 201.5 19.3 L 201.5 51.5 Q 201.4 53.7 202.95 54.6 Q 204.5 55.5 206.3 55.5 L 226.1 55.5 A 19.027 19.027 0 0 0 226.862 55.486 Q 227.992 55.441 228.459 55.248 A 0.735 0.735 0 0 0 228.7 55.1 A 0.78 0.78 0 0 0 228.861 54.827 Q 229.042 54.352 229.086 53.258 A 19.055 19.055 0 0 0 229.1 52.5 L 229.1 19.3 L 241.3 19.3 L 241.3 64.1 L 233.1 64.1 L 229.3 62.1 Q 226.238 62.713 222.325 63.208 A 153.325 153.325 0 0 1 219.85 63.5 Q 214.4 64.1 207.6 64.1 Z" id="4" vector-effect="non-scaling-stroke"/><path d="M 292.9 64.1 L 264.6 64.1 Q 257.9 64.1 255.1 63.4 Q 252.378 62.72 252.302 62.039 A 0.352 0.352 0 0 1 252.3 62 L 255.3 54.5 Q 257.685 54.747 263.35 55.027 A 600.115 600.115 0 0 0 265.95 55.15 Q 273.7 55.5 285.1 55.5 L 290.1 55.5 A 7.1 7.1 0 0 0 291.17 55.426 Q 292.473 55.226 293.041 54.49 A 1.919 1.919 0 0 0 293.25 54.15 Q 293.9 52.8 293.9 50.5 Q 293.9 48.2 293.15 46.8 A 2.424 2.424 0 0 0 291.79 45.659 Q 291.335 45.491 290.76 45.432 A 6.484 6.484 0 0 0 290.1 45.4 L 265.5 45.4 Q 259.115 45.4 255.975 43.196 A 7.642 7.642 0 0 1 255.4 42.75 Q 252.489 40.262 252.312 35.437 A 17.315 17.315 0 0 1 252.3 34.8 L 252.3 30.8 Q 252.3 29.4 252.6 27.5 A 9.243 9.243 0 0 1 253.354 25.066 A 11.881 11.881 0 0 1 254.1 23.7 Q 255.3 21.8 258 20.55 A 11.253 11.253 0 0 1 260.104 19.838 Q 262.28 19.317 265.304 19.301 A 36.378 36.378 0 0 1 265.5 19.3 L 293.1 19.3 Q 299.1 19.3 301.6 20 A 15.391 15.391 0 0 1 302.418 20.252 Q 303.586 20.65 303.943 21.049 A 0.53 0.53 0 0 1 304.1 21.4 L 303.1 28.9 Q 300.72 28.654 295.042 28.374 A 603.337 603.337 0 0 0 292.4 28.25 A 305.855 305.855 0 0 0 286.058 28.037 Q 283.21 27.969 280.021 27.934 A 628.388 628.388 0 0 0 273.3 27.9 L 268.3 27.9 A 7.1 7.1 0 0 0 267.23 27.974 Q 265.927 28.174 265.359 28.91 A 1.919 1.919 0 0 0 265.15 29.25 A 6.425 6.425 0 0 0 264.607 31.012 A 8.612 8.612 0 0 0 264.5 32.4 A 9.172 9.172 0 0 0 264.591 33.734 Q 264.744 34.769 265.15 35.55 A 1.945 1.945 0 0 0 266.061 36.399 Q 266.884 36.8 268.3 36.8 L 292.9 36.8 A 26.333 26.333 0 0 1 296.44 37.022 Q 300.582 37.585 302.88 39.582 A 8.078 8.078 0 0 1 302.9 39.6 A 8.964 8.964 0 0 1 306.084 46.103 A 11.15 11.15 0 0 1 306.1 46.7 L 306.1 52.6 A 29.1 29.1 0 0 1 305.982 55.17 A 34.501 34.501 0 0 1 305.85 56.4 A 8.396 8.396 0 0 1 304.409 60.136 A 9.71 9.71 0 0 1 304.4 60.15 A 6.524 6.524 0 0 1 302.945 61.648 Q 302.25 62.176 301.355 62.617 A 13.204 13.204 0 0 1 300.5 63 A 12.191 12.191 0 0 1 298.438 63.615 Q 296.306 64.068 293.328 64.098 A 42.369 42.369 0 0 1 292.9 64.1 Z" id="5" vector-effect="non-scaling-stroke"/></g></svg>